<?xml version="1.0" encoding="UTF-8"?>
<!DOCTYPE svg PUBLIC "-//W3C//DTD SVG 1.1//EN" "http://www.w3.org/Graphics/SVG/1.1/DTD/svg11.dtd">
<svg xmlns="http://www.w3.org/2000/svg" version="1.1" width="50px" height="50px" style="shape-rendering:geometricPrecision; text-rendering:geometricPrecision; image-rendering:optimizeQuality; fill-rule:evenodd; clip-rule:evenodd" xmlns:xlink="http://www.w3.org/1999/xlink">
<g><path style="opacity:0.87" fill="#000000" d="M 20.5,1.5 C 23.2469,1.18665 25.9135,1.51998 28.5,2.5C 29.7159,7.95603 32.3825,9.1227 36.5,6C 43.5532,7.05184 44.8865,10.3852 40.5,16C 41.5902,18.6517 43.5902,20.1517 46.5,20.5C 47.8333,23.1667 47.8333,25.8333 46.5,28.5C 41.044,29.7159 39.8773,32.3825 43,36.5C 41.9482,43.5532 38.6148,44.8865 33,40.5C 30.3483,41.5902 28.8483,43.5902 28.5,46.5C 25.8333,47.8333 23.1667,47.8333 20.5,46.5C 19.2841,41.044 16.6175,39.8773 12.5,43C 5.44681,41.9482 4.11347,38.6148 8.5,33C 7.40979,30.3483 5.40979,28.8483 2.5,28.5C 1.16667,25.8333 1.16667,23.1667 2.5,20.5C 7.95603,19.2841 9.1227,16.6175 6,12.5C 7.05184,5.44681 10.3852,4.11347 16,8.5C 18.8657,7.10158 20.3657,4.76825 20.5,1.5 Z M 20.5,14.5 C 30.9884,13.4874 35.4884,18.154 34,28.5C 31.0812,34.0248 26.5812,35.8581 20.5,34C 14.9752,31.0812 13.1419,26.5812 15,20.5C 16.3597,17.9774 18.193,15.9774 20.5,14.5 Z"/></g>
<g><path style="opacity:0.887" fill="#000000" d="M 21.5,19.5 C 29.4863,18.998 31.4863,22.1647 27.5,29C 19.424,29.8047 17.424,26.638 21.5,19.5 Z"/></g>
</svg>
