<?xml version="1.0" encoding="UTF-8"?>
<!DOCTYPE svg PUBLIC "-//W3C//DTD SVG 1.1//EN" "http://www.w3.org/Graphics/SVG/1.1/DTD/svg11.dtd">
<svg xmlns="http://www.w3.org/2000/svg" version="1.1" width="50px" height="50px" style="shape-rendering:geometricPrecision; text-rendering:geometricPrecision; image-rendering:optimizeQuality; fill-rule:evenodd; clip-rule:evenodd" xmlns:xlink="http://www.w3.org/1999/xlink">
<g><path style="opacity:0.866" fill="#000000" d="M 33.5,2.5 C 42.4867,1.66502 44.8201,5.16502 40.5,13C 31.4297,14.1356 29.0963,10.6356 33.5,2.5 Z"/></g>
<g><path style="opacity:0.72" fill="#000000" d="M 9.5,4.5 C 13.1667,4.5 16.8333,4.5 20.5,4.5C 20.8226,8.22605 20.4892,11.8927 19.5,15.5C 18.6922,13.5767 18.1922,11.5767 18,9.5C 13.8333,13.6667 9.66667,17.8333 5.5,22C 4.55198,22.4828 3.55198,22.6495 2.5,22.5C 2.35055,21.448 2.51722,20.448 3,19.5C 7.16667,15.3333 11.3333,11.1667 15.5,7C 12.9488,6.99775 10.9488,6.16441 9.5,4.5 Z"/></g>
<g><path style="opacity:0.963" fill="#000000" d="M 28.5,14.5 C 34.1764,14.3339 39.8431,14.5006 45.5,15C 46,15.5 46.5,16 47,16.5C 47.4994,22.1569 47.6661,27.8236 47.5,33.5C 46.1667,33.5 44.8333,33.5 43.5,33.5C 43.665,30.1501 43.4983,26.8168 43,23.5C 42.5003,31.1594 42.3336,38.8261 42.5,46.5C 40.8333,46.5 39.1667,46.5 37.5,46.5C 37.1667,29.1667 36.8333,29.1667 36.5,46.5C 34.8333,46.5 33.1667,46.5 31.5,46.5C 31.6664,38.8261 31.4997,31.1594 31,23.5C 30.5017,26.8168 30.335,30.1501 30.5,33.5C 29.1667,33.5 27.8333,33.5 26.5,33.5C 26.3339,27.8236 26.5006,22.1569 27,16.5C 27.7172,15.9558 28.2172,15.2891 28.5,14.5 Z"/></g>
<g><path style="opacity:1" fill="#000000" d="M 18.5,20.5 C 20.5,20.5 22.5,20.5 24.5,20.5C 24.5,29.1667 24.5,37.8333 24.5,46.5C 22.5,46.5 20.5,46.5 18.5,46.5C 18.5,37.8333 18.5,29.1667 18.5,20.5 Z"/></g>
<g><path style="opacity:1" fill="#000000" d="M 10.5,27.5 C 12.5,27.5 14.5,27.5 16.5,27.5C 16.5,33.8333 16.5,40.1667 16.5,46.5C 14.5,46.5 12.5,46.5 10.5,46.5C 10.5,40.1667 10.5,33.8333 10.5,27.5 Z"/></g>
<g><path style="opacity:1" fill="#000000" d="M 2.5,33.5 C 4.5,33.5 6.5,33.5 8.5,33.5C 8.5,37.8333 8.5,42.1667 8.5,46.5C 6.5,46.5 4.5,46.5 2.5,46.5C 2.5,42.1667 2.5,37.8333 2.5,33.5 Z"/></g>
</svg>
