<?xml version="1.0" encoding="UTF-8"?>
<!DOCTYPE svg PUBLIC "-//W3C//DTD SVG 1.1//EN" "http://www.w3.org/Graphics/SVG/1.1/DTD/svg11.dtd">
<svg xmlns="http://www.w3.org/2000/svg" version="1.1" width="64px" height="64px" style="shape-rendering:geometricPrecision; text-rendering:geometricPrecision; image-rendering:optimizeQuality; fill-rule:evenodd; clip-rule:evenodd" xmlns:xlink="http://www.w3.org/1999/xlink">
<g><path style="opacity:0.628" fill="#000000" d="M 17.5,-0.5 C 22.1667,-0.5 26.8333,-0.5 31.5,-0.5C 38.7985,1.83111 44.1318,6.49777 47.5,13.5C 62.0488,21.3321 65.5488,32.6655 58,47.5C 53.4081,52.8792 47.5748,55.7126 40.5,56C 38.4144,59.1938 35.7477,61.6938 32.5,63.5C 28.5,63.5 24.5,63.5 20.5,63.5C 13.8225,59.947 10.6558,54.2804 11,46.5C 5.70433,42.5536 1.871,37.5536 -0.5,31.5C -0.5,26.8333 -0.5,22.1667 -0.5,17.5C 2.5,8.5 8.5,2.5 17.5,-0.5 Z M 18.5,2.5 C 38.3125,1.47854 47.4792,10.8119 46,30.5C 38.8762,46.3218 27.3762,50.4885 11.5,43C 1.75494,33.9495 -0.0783954,23.4495 6,11.5C 9.29905,7.1179 13.4657,4.1179 18.5,2.5 Z M 29.5,6.5 C 30.911,8.53905 32.911,9.53905 35.5,9.5C 37.577,12.6503 39.4104,15.9836 41,19.5C 41.9851,37.1777 33.8184,44.011 16.5,40C 7.80781,34.254 5.30781,26.4207 9,16.5C 13.7768,9.02855 20.6102,5.69522 29.5,6.5 Z M 23.5,17.5 C 23.6602,19.1992 23.4935,20.8659 23,22.5C 20.9353,20.549 21.102,18.8823 23.5,17.5 Z M 39.5,45.5 C 47.7708,38.546 51.2708,29.546 50,18.5C 58.8686,25.5513 60.8686,34.2179 56,44.5C 48.966,52.9103 40.466,54.7436 30.5,50C 33.4954,48.5023 36.4954,47.0023 39.5,45.5 Z M 25.5,26.5 C 27.898,27.8823 28.0647,29.549 26,31.5C 25.5065,29.8659 25.3398,28.1992 25.5,26.5 Z M 33.5,55.5 C 29.0713,55.4567 28.0713,56.9567 30.5,60C 27.8333,60.6667 25.1667,60.6667 22.5,60C 23.938,59.7811 25.2713,59.2811 26.5,58.5C 23.2778,56.7909 20.4445,54.4576 18,51.5C 15.4401,54.7541 14.2734,53.7541 14.5,48.5C 18.1419,49.0804 21.8086,49.5804 25.5,50C 28.059,52.103 30.7257,53.9363 33.5,55.5 Z M 33.5,55.5 C 37.1331,55.443 37.2998,56.443 34,58.5C 33.5172,57.552 33.3505,56.552 33.5,55.5 Z"/></g>
<g><path style="opacity:0.616" fill="#000000" d="M 29.5,6.5 C 20.6102,5.69522 13.7768,9.02855 9,16.5C 5.30781,26.4207 7.80781,34.254 16.5,40C 33.8184,44.011 41.9851,37.1777 41,19.5C 39.4104,15.9836 37.577,12.6503 35.5,9.5C 36.4232,8.69708 37.4232,8.53042 38.5,9C 45.0667,17.0519 46.2334,25.8852 42,35.5C 35.9651,44.0443 27.7984,46.8776 17.5,44C 6.24773,38.6574 2.08107,29.8241 5,17.5C 10.1273,6.17252 18.294,2.50585 29.5,6.5 Z M 23.5,17.5 C 21.102,18.8823 20.9353,20.549 23,22.5C 23.4935,20.8659 23.6602,19.1992 23.5,17.5 Z M 25.5,26.5 C 25.3398,28.1992 25.5065,29.8659 26,31.5C 28.0647,29.549 27.898,27.8823 25.5,26.5 Z"/></g>
<g><path style="opacity:0.509" fill="#000000" d="M 35.5,9.5 C 32.911,9.53905 30.911,8.53905 29.5,6.5C 32.8534,4.84334 34.8534,5.84334 35.5,9.5 Z"/></g>
<g><path style="opacity:0.794" fill="#000000" d="M 25.5,17.5 C 25.5,19.5 25.5,21.5 25.5,23.5C 28.9496,23.5726 30.283,25.4059 29.5,29C 30.283,32.5941 28.9496,34.4274 25.5,34.5C 24.8333,38.5 24.1667,38.5 23.5,34.5C 19.7482,34.4993 18.7482,32.8326 20.5,29.5C 21.4776,29.9767 22.3109,30.6433 23,31.5C 23.0496,29.256 23.8829,27.5893 25.5,26.5C 23.7816,25.776 21.9483,25.1094 20,24.5C 19.3333,21.5 19.3333,18.5 20,15.5C 21.0113,14.6634 22.1779,14.33 23.5,14.5C 24.1667,10.5 24.8333,10.5 25.5,14.5C 29.2518,14.5007 30.2518,16.1674 28.5,19.5C 27.4822,18.8075 26.4822,18.1408 25.5,17.5 Z M 23.5,17.5 C 21.102,18.8823 20.9353,20.549 23,22.5C 23.4935,20.8659 23.6602,19.1992 23.5,17.5 Z M 25.5,26.5 C 25.3398,28.1992 25.5065,29.8659 26,31.5C 28.0647,29.549 27.898,27.8823 25.5,26.5 Z"/></g>
<g><path style="opacity:0.586" fill="#000000" d="M 9.5,26.5 C 10.5,26.5 11.5,26.5 12.5,26.5C 12.8464,30.3591 14.6798,33.3591 18,35.5C 18.7494,36.635 18.5827,37.635 17.5,38.5C 12.3377,36.1781 9.67099,32.1781 9.5,26.5 Z"/></g>
<g><path style="opacity:0.54" fill="#000000" d="M 52.5,27.5 C 54.2252,27.8425 54.7252,28.8425 54,30.5C 52.9887,31.3366 51.8221,31.67 50.5,31.5C 50.5271,29.8007 51.1938,28.4674 52.5,27.5 Z"/></g>
<g><path style="opacity:0.883" fill="#000000" d="M 51.5,33.5 C 52.9778,33.238 54.3112,33.5713 55.5,34.5C 54.8333,34.8333 54.1667,35.1667 53.5,35.5C 52.2867,35.2528 51.62,34.5862 51.5,33.5 Z"/></g>
<g><path style="opacity:0.541" fill="#000000" d="M 50.5,37.5 C 53.179,37.5246 54.5123,38.858 54.5,41.5C 51.5,41.8333 50.1667,40.5 50.5,37.5 Z"/></g>
<g><path style="opacity:0.504" fill="#000000" d="M 47.5,41.5 C 50.5,41.1667 51.8333,42.5 51.5,45.5C 48.5,45.8333 47.1667,44.5 47.5,41.5 Z"/></g>
<g><path style="opacity:0.54" fill="#000000" d="M 43.5,44.5 C 45.5901,44.4501 46.9234,45.4501 47.5,47.5C 44.5812,48.9318 43.2479,47.9318 43.5,44.5 Z"/></g>
<g><path style="opacity:0.883" fill="#000000" d="M 39.5,45.5 C 40.5862,45.62 41.2528,46.2867 41.5,47.5C 41.1667,48.1667 40.8333,48.8333 40.5,49.5C 39.5713,48.3112 39.238,46.9778 39.5,45.5 Z"/></g>
</svg>
