<?xml version="1.0" encoding="UTF-8"?>
<!DOCTYPE svg PUBLIC "-//W3C//DTD SVG 1.1//EN" "http://www.w3.org/Graphics/SVG/1.1/DTD/svg11.dtd">
<svg xmlns="http://www.w3.org/2000/svg" version="1.1" width="48px" height="48px" style="shape-rendering:geometricPrecision; text-rendering:geometricPrecision; image-rendering:optimizeQuality; fill-rule:evenodd; clip-rule:evenodd" xmlns:xlink="http://www.w3.org/1999/xlink">
<g><path style="opacity:0.727" fill="#000000" d="M 18.5,25.5 C 18.3433,24.1266 18.51,22.7932 19,21.5C 21.6833,18.9841 24.1833,16.3174 26.5,13.5C 22.5664,10.2901 22.5664,7.12348 26.5,4C 29.0411,3.61906 31.3745,2.78573 33.5,1.5C 35.0293,1.52884 36.196,2.19551 37,3.5C 43.8333,1 46,3.16667 43.5,10C 44.8045,10.804 45.4712,11.9707 45.5,13.5C 44.2143,15.6255 43.3809,17.9589 43,20.5C 39.3513,24.5984 36.018,24.2651 33,19.5C 29.3679,24.1337 25.3679,28.467 21,32.5C 21.4625,34.5259 22.2959,36.5259 23.5,38.5C 23.1243,40.3829 22.1243,41.8829 20.5,43C 17.9589,43.3809 15.6255,44.2143 13.5,45.5C 11.9707,45.4712 10.804,44.8045 10,43.5C 3.16667,46 1,43.8333 3.5,37C 2.19551,36.196 1.52884,35.0293 1.5,33.5C 2.50432,29.9715 4.17099,26.8048 6.5,24C 9.40658,23.1455 11.7399,23.9788 13.5,26.5C 14.9653,24.5764 16.632,24.2431 18.5,25.5 Z M 37.5,10.5 C 41.0595,12.2825 41.0595,13.2825 37.5,13.5C 37.5,12.5 37.5,11.5 37.5,10.5 Z M 33.5,13.5 C 34.5,13.5 35.5,13.5 36.5,13.5C 36.5,14.5 36.5,15.5 36.5,16.5C 35.1667,15.8333 34.1667,14.8333 33.5,13.5 Z M 28.5,18.5 C 29.2376,16.2398 30.2376,16.0731 31.5,18C 30.552,18.4828 29.552,18.6495 28.5,18.5 Z M 18.5,25.5 C 19.5,25.5 20.5,25.5 21.5,25.5C 20.8333,26.8333 19.8333,27.8333 18.5,28.5C 18.5,27.5 18.5,26.5 18.5,25.5 Z M 10.5,30.5 C 11.8333,31.1667 12.8333,32.1667 13.5,33.5C 12.5,33.5 11.5,33.5 10.5,33.5C 10.5,32.5 10.5,31.5 10.5,30.5 Z M 10.5,33.5 C 9.89022,34.391 9.55688,35.391 9.5,36.5C 5.18831,34.1471 5.52164,33.1471 10.5,33.5 Z"/></g>
</svg>
