<?xml version="1.0" encoding="UTF-8"?>
<!DOCTYPE svg PUBLIC "-//W3C//DTD SVG 1.1//EN" "http://www.w3.org/Graphics/SVG/1.1/DTD/svg11.dtd">
<svg xmlns="http://www.w3.org/2000/svg" version="1.1" width="50px" height="50px" style="shape-rendering:geometricPrecision; text-rendering:geometricPrecision; image-rendering:optimizeQuality; fill-rule:evenodd; clip-rule:evenodd" xmlns:xlink="http://www.w3.org/1999/xlink">
<g><path style="opacity:0.837" fill="#000000" d="M 25.5,49.5 C 24.8333,49.5 24.1667,49.5 23.5,49.5C 23.1694,46.192 21.6694,43.5253 19,41.5C 18.4257,43.492 17.259,44.992 15.5,46C 9.56911,47.9253 5.40245,46.092 3,40.5C 1.27252,37.3821 0.439184,34.0487 0.5,30.5C 5.79607,29.4905 11.1294,29.3239 16.5,30C 19.6888,31.889 21.1888,34.7224 21,38.5C 21.6667,39.1667 22.3333,39.8333 23,40.5C 23.4986,36.8484 23.6653,33.1817 23.5,29.5C 11.0385,26.9165 7.20512,19.5832 12,7.5C 17.6635,1.3044 24.4968,-0.195599 32.5,3C 38.5763,8.73375 40.0763,15.5671 37,23.5C 34.0455,27.2269 30.2121,29.2269 25.5,29.5C 24.5301,42.9025 26.0301,43.5691 30,31.5C 30.7504,30.8742 31.5838,30.3742 32.5,30C 37.8706,29.3239 43.2039,29.4905 48.5,30.5C 48.0675,36.1318 46.0675,41.1318 42.5,45.5C 39.562,46.5748 36.562,46.7415 33.5,46C 31.741,44.992 30.5743,43.492 30,41.5C 27.3306,43.5253 25.8306,46.192 25.5,49.5 Z M 27.5,8.5 C 25.5,8.5 23.5,8.5 21.5,8.5C 22.6114,7.34029 23.6114,6.00696 24.5,4.5C 25.3886,6.00696 26.3886,7.34029 27.5,8.5 Z M 21.5,22.5 C 23.5273,22.3379 25.5273,22.5045 27.5,23C 26.2298,23.8996 25.2298,25.0663 24.5,26.5C 23.6114,24.993 22.6114,23.6597 21.5,22.5 Z"/></g>
</svg>
