<?xml version="1.0" encoding="UTF-8"?>
<!DOCTYPE svg PUBLIC "-//W3C//DTD SVG 1.1//EN" "http://www.w3.org/Graphics/SVG/1.1/DTD/svg11.dtd">
<svg xmlns="http://www.w3.org/2000/svg" version="1.1" width="64px" height="64px" style="shape-rendering:geometricPrecision; text-rendering:geometricPrecision; image-rendering:optimizeQuality; fill-rule:evenodd; clip-rule:evenodd" xmlns:xlink="http://www.w3.org/1999/xlink">
<g><path style="opacity:0.712" fill="#000000" d="M 34.5,28.5 C 42.0289,30.9281 49.3622,33.9281 56.5,37.5C 57.8333,40.8333 57.8333,44.1667 56.5,47.5C 48.1687,51.9163 39.6687,55.9163 31,59.5C 25.4682,57.9866 20.6349,55.3199 16.5,51.5C 21.018,51.1464 25.1847,52.4797 29,55.5C 29.6838,54.2161 29.5171,53.0495 28.5,52C 22.0796,48.3728 15.5796,44.8728 9,41.5C 8.50649,43.1341 8.33982,44.8008 8.5,46.5C 9.5,46.5 10.5,46.5 11.5,46.5C 11.5,47.5 11.5,48.5 11.5,49.5C 9.5,48.8333 7.5,48.1667 5.5,47.5C 5.17964,44.1016 5.51298,40.7683 6.5,37.5C 13.7169,34.0581 21.0502,30.8914 28.5,28C 24.4067,23.9823 21.7401,19.149 20.5,13.5C 22.1897,4.48085 27.523,1.31418 36.5,4C 41.2015,6.42877 43.0349,10.2621 42,15.5C 40.5031,20.4769 38.0031,24.8103 34.5,28.5 Z M 34.5,28.5 C 34.5923,32.0714 32.9257,33.2381 29.5,32C 29.0426,31.586 28.7093,31.086 28.5,30.5C 30.6714,31.1003 32.6714,30.4336 34.5,28.5 Z M 22.5,33.5 C 28.0644,33.7811 28.5644,35.1144 24,37.5C 22.5806,36.5399 21.0806,35.7065 19.5,35C 20.7375,34.7679 21.7375,34.2679 22.5,33.5 Z M 37.5,33.5 C 42.6249,33.6146 43.2916,34.9479 39.5,37.5C 35.8906,36.7132 35.2239,35.3799 37.5,33.5 Z M 15.5,36.5 C 20.7802,38.1439 20.7802,39.8106 15.5,41.5C 13.9984,40.9169 12.6651,40.0836 11.5,39C 13.0664,38.3918 14.3998,37.5585 15.5,36.5 Z M 29.5,37.5 C 35.8654,37.5605 36.5321,38.8938 31.5,41.5C 27.8906,40.7132 27.2239,39.3799 29.5,37.5 Z M 45.5,37.5 C 51.8654,37.5605 52.5321,38.8938 47.5,41.5C 43.8906,40.7132 43.2239,39.3799 45.5,37.5 Z M 21.5,41.5 C 27.8654,41.5605 28.5321,42.8938 23.5,45.5C 19.8906,44.7132 19.2239,43.3799 21.5,41.5 Z M 37.5,41.5 C 43.8654,41.5605 44.5321,42.8938 39.5,45.5C 35.8906,44.7132 35.2239,43.3799 37.5,41.5 Z M 53.5,41.5 C 54.782,42.7082 54.782,44.0416 53.5,45.5C 46.8333,48.8333 40.1667,52.1667 33.5,55.5C 32.269,54.3493 32.269,53.1827 33.5,52C 40.3859,48.7257 47.0526,45.2257 53.5,41.5 Z M 29.5,45.5 C 35.8654,45.5605 36.5321,46.8938 31.5,49.5C 27.8906,48.7132 27.2239,47.3799 29.5,45.5 Z"/></g>
<g><path style="opacity:0.485" fill="#000000" d="M 12.5,48.5 C 13.5,48.5 14.5,48.5 15.5,48.5C 15.5,49.5 15.5,50.5 15.5,51.5C 14.5,51.5 13.5,51.5 12.5,51.5C 12.5,50.5 12.5,49.5 12.5,48.5 Z"/></g>
</svg>
