<?xml version="1.0" encoding="UTF-8"?>
<!DOCTYPE svg PUBLIC "-//W3C//DTD SVG 1.1//EN" "http://www.w3.org/Graphics/SVG/1.1/DTD/svg11.dtd">
<svg xmlns="http://www.w3.org/2000/svg" version="1.1" width="64px" height="64px" style="shape-rendering:geometricPrecision; text-rendering:geometricPrecision; image-rendering:optimizeQuality; fill-rule:evenodd; clip-rule:evenodd" xmlns:xlink="http://www.w3.org/1999/xlink">
<g><path style="opacity:0.975" fill="#000000" d="M 19.5,2.5 C 22.5993,2.09229 24.9326,3.25896 26.5,6C 31.8229,6.49935 37.1563,6.66602 42.5,6.5C 42.5,8.83333 42.5,11.1667 42.5,13.5C 44.1667,13.5 45.8333,13.5 47.5,13.5C 47.5,14.8333 47.5,16.1667 47.5,17.5C 35.5,17.5 23.5,17.5 11.5,17.5C 11.5,16.1667 11.5,14.8333 11.5,13.5C 13.1667,13.5 14.8333,13.5 16.5,13.5C 15.8075,9.24733 16.8075,5.58066 19.5,2.5 Z"/></g>
<g><path style="opacity:1" fill="#fefffe" d="M 28.5,8.5 C 29.8333,8.5 31.1667,8.5 32.5,8.5C 32.5,9.5 32.5,10.5 32.5,11.5C 31.1667,11.5 29.8333,11.5 28.5,11.5C 28.5,10.5 28.5,9.5 28.5,8.5 Z"/></g>
<g><path style="opacity:1" fill="#fefffe" d="M 35.5,8.5 C 36.8333,8.5 38.1667,8.5 39.5,8.5C 39.5,9.5 39.5,10.5 39.5,11.5C 38.1667,11.5 36.8333,11.5 35.5,11.5C 35.5,10.5 35.5,9.5 35.5,8.5 Z"/></g>
<g><path style="opacity:1" fill="#f9f9f9" d="M 20.5,8.5 C 23.0838,9.0483 24.0838,10.715 23.5,13.5C 22.1667,13.5 20.8333,13.5 19.5,13.5C 19.366,11.7085 19.6993,10.0418 20.5,8.5 Z"/></g>
<g><path style="opacity:0.951" fill="#000000" d="M 15.5,19.5 C 25.1896,19.1682 34.8563,19.5016 44.5,20.5C 47.1506,22.6499 49.6506,24.9832 52,27.5C 52.4994,32.8229 52.666,38.1563 52.5,43.5C 39.8333,43.5 27.1667,43.5 14.5,43.5C 14.1995,35.4144 14.5328,27.4144 15.5,19.5 Z M 26.5,27.5 C 27.8333,27.5 29.1667,27.5 30.5,27.5C 30.5,28.8333 30.5,30.1667 30.5,31.5C 29.1667,31.5 27.8333,31.5 26.5,31.5C 26.5,30.1667 26.5,28.8333 26.5,27.5 Z M 34.5,27.5 C 35.8333,27.5 37.1667,27.5 38.5,27.5C 38.5,28.8333 38.5,30.1667 38.5,31.5C 37.1667,31.5 35.8333,31.5 34.5,31.5C 34.5,30.1667 34.5,28.8333 34.5,27.5 Z M 42.5,27.5 C 43.8333,27.5 45.1667,27.5 46.5,27.5C 46.5,28.8333 46.5,30.1667 46.5,31.5C 45.1667,31.5 43.8333,31.5 42.5,31.5C 42.5,30.1667 42.5,28.8333 42.5,27.5 Z M 18.5,35.5 C 19.8333,35.5 21.1667,35.5 22.5,35.5C 22.5,36.8333 22.5,38.1667 22.5,39.5C 21.1667,39.5 19.8333,39.5 18.5,39.5C 18.5,38.1667 18.5,36.8333 18.5,35.5 Z M 34.5,35.5 C 35.8333,35.5 37.1667,35.5 38.5,35.5C 38.5,36.8333 38.5,38.1667 38.5,39.5C 37.1667,39.5 35.8333,39.5 34.5,39.5C 34.5,38.1667 34.5,36.8333 34.5,35.5 Z"/></g>
<g><path style="opacity:1" fill="#000000" d="M 10.5,45.5 C 24.5,45.5 38.5,45.5 52.5,45.5C 52.5,50.1667 52.5,54.8333 52.5,59.5C 45.1667,59.5 37.8333,59.5 30.5,59.5C 30.5,56.1667 30.5,52.8333 30.5,49.5C 28.5,49.5 26.5,49.5 24.5,49.5C 24.5,52.8333 24.5,56.1667 24.5,59.5C 19.8333,59.5 15.1667,59.5 10.5,59.5C 10.5,54.8333 10.5,50.1667 10.5,45.5 Z M 15.5,49.5 C 16.8333,49.5 18.1667,49.5 19.5,49.5C 19.5,51.5 19.5,53.5 19.5,55.5C 18.1667,55.5 16.8333,55.5 15.5,55.5C 15.5,53.5 15.5,51.5 15.5,49.5 Z M 35.5,49.5 C 36.8333,49.5 38.1667,49.5 39.5,49.5C 39.5,51.5 39.5,53.5 39.5,55.5C 38.1667,55.5 36.8333,55.5 35.5,55.5C 35.5,53.5 35.5,51.5 35.5,49.5 Z M 44.5,49.5 C 45.8333,49.5 47.1667,49.5 48.5,49.5C 48.5,51.5 48.5,53.5 48.5,55.5C 47.1667,55.5 45.8333,55.5 44.5,55.5C 44.5,53.5 44.5,51.5 44.5,49.5 Z"/></g>
</svg>
