<?xml version="1.0" encoding="UTF-8"?>
<!DOCTYPE svg PUBLIC "-//W3C//DTD SVG 1.1//EN" "http://www.w3.org/Graphics/SVG/1.1/DTD/svg11.dtd">
<svg xmlns="http://www.w3.org/2000/svg" version="1.1" width="24px" height="24px" style="shape-rendering:geometricPrecision; text-rendering:geometricPrecision; image-rendering:optimizeQuality; fill-rule:evenodd; clip-rule:evenodd" xmlns:xlink="http://www.w3.org/1999/xlink">
<g><path style="opacity:0.981" fill="#000000" d="M 5.5,1.5 C 10.8333,1.5 16.1667,1.5 21.5,1.5C 21.5,6.83333 21.5,12.1667 21.5,17.5C 16.1667,17.5 10.8333,17.5 5.5,17.5C 5.5,12.1667 5.5,6.83333 5.5,1.5 Z M 7.5,3.5 C 9.16667,3.5 10.8333,3.5 12.5,3.5C 12.6633,5.85684 12.4966,8.19018 12,10.5C 10.6667,9.16667 9.33333,9.16667 8,10.5C 7.50335,8.19018 7.33669,5.85684 7.5,3.5 Z"/></g>
<g><path style="opacity:0.984" fill="#000000" d="M 1.5,5.5 C 3.43644,9.71474 4.1031,14.3814 3.5,19.5C 8.21369,19.1734 12.8804,19.5067 17.5,20.5C 12.2079,21.4948 6.8746,21.8282 1.5,21.5C 1.5,16.1667 1.5,10.8333 1.5,5.5 Z"/></g>
</svg>
