<?xml version="1.0" encoding="UTF-8"?>
<!-- Generator: visioncortex VTracer 0.6.2 -->
<svg version="1.1" xmlns="http://www.w3.org/2000/svg" width="1280" height="1280">
<path d="M0 0 C1.2516394 -0.00262848 1.2516394 -0.00262848 2.52856445 -0.00531006 C5.28989739 -0.00971536 8.0511664 -0.00679521 10.8125 -0.00341797 C12.72916679 -0.00409139 14.6458335 -0.00506173 16.5625 -0.00631714 C20.58073743 -0.00779232 24.59895265 -0.0056453 28.6171875 -0.00097656 C33.77231617 0.00472061 38.92739277 0.00144065 44.08251953 -0.00454903 C48.04069411 -0.00815947 51.9988563 -0.00701382 55.95703125 -0.00442123 C57.85807298 -0.00375331 59.75911583 -0.00457572 61.66015625 -0.00690079 C64.31513453 -0.00943519 66.97002804 -0.00557552 69.625 0 C70.41366455 -0.00202423 71.2023291 -0.00404846 72.01489258 -0.00613403 C75.21366587 0.00633473 77.75515646 0.11028002 80.8125 1.12939453 C82.97707549 1.28650082 85.14448858 1.4054201 87.3125 1.50439453 C93.6470502 1.85336186 99.86058296 2.63419129 106.125 3.62939453 C106.95515625 3.76007324 107.7853125 3.89075195 108.640625 4.02539062 C114.54101925 4.99365416 114.54101925 4.99365416 116.8125 6.12939453 C118.76627733 6.45016394 120.72580758 6.73624952 122.6875 7.00439453 C128.12408745 7.80759488 133.36397212 8.91924939 138.66796875 10.34814453 C141.23000593 10.98467551 143.76445583 11.5142384 146.35546875 12.00830078 C152.62649133 13.24200219 158.77105556 14.89578099 164.9375 16.56689453 C166.06542969 16.86660156 167.19335938 17.16630859 168.35546875 17.47509766 C174.32130604 19.08343157 180.05610703 20.89183896 185.8125 23.12939453 C187.95261916 23.79391795 190.09827057 24.44098572 192.25 25.06689453 C196.88037284 26.46826169 201.20921077 28.08222036 205.58203125 30.13720703 C208.05726748 31.23827533 210.56447807 32.1204483 213.125 33.00439453 C218.28954271 34.83650885 223.05612132 37.19197244 227.921875 39.69970703 C230.46322855 40.95664676 232.97269752 42.01197672 235.625 43.00439453 C240.63032986 44.93444973 245.28819022 47.43087084 249.98999023 49.99169922 C254.33936722 52.35881138 258.73574588 54.58706923 263.1875 56.75439453 C267.92104301 59.09725926 272.26663144 61.6306238 276.58984375 64.65283203 C280.00669494 66.92272615 283.61347137 68.81324337 287.234375 70.73486328 C292.47424948 73.56915902 292.47424948 73.56915902 294.8125 75.12939453 C294.8125 75.78939453 294.8125 76.44939453 294.8125 77.12939453 C295.8025 77.12939453 296.7925 77.12939453 297.8125 77.12939453 C297.8125 77.78939453 297.8125 78.44939453 297.8125 79.12939453 C298.38758301 79.23662842 298.96266602 79.3438623 299.55517578 79.4543457 C302.13707096 80.22645691 303.76594188 81.33006758 305.9296875 82.93017578 C306.70183594 83.49542969 307.47398437 84.06068359 308.26953125 84.64306641 C309.06746094 85.23667969 309.86539063 85.83029297 310.6875 86.44189453 C312.26750731 87.60563564 313.84822201 88.76841703 315.4296875 89.93017578 C316.17702148 90.4827002 316.92435547 91.03522461 317.69433594 91.60449219 C319.55656649 92.94514365 321.44505186 94.19519073 323.3828125 95.42236328 C324.18460938 95.98568359 324.98640625 96.54900391 325.8125 97.12939453 C325.8125 97.78939453 325.8125 98.44939453 325.8125 99.12939453 C327.1325 99.45939453 328.4525 99.78939453 329.8125 100.12939453 C329.8125 100.78939453 329.8125 101.44939453 329.8125 102.12939453 C330.616875 102.39751953 331.42125 102.66564453 332.25 102.94189453 C333.095625 103.33376953 333.94125 103.72564453 334.8125 104.12939453 C335.1425 105.11939453 335.4725 106.10939453 335.8125 107.12939453 C336.51375 107.39751953 337.215 107.66564453 337.9375 107.94189453 C341.84564036 109.55612642 344.91351161 112.05496304 347.8125 115.12939453 C347.8125 115.78939453 347.8125 116.44939453 347.8125 117.12939453 C348.67875 117.53158203 348.67875 117.53158203 349.5625 117.94189453 C351.86800043 119.15868642 353.83306192 120.43273332 355.8125 122.12939453 C355.8125 122.78939453 355.8125 123.44939453 355.8125 124.12939453 C356.67488281 124.49871094 356.67488281 124.49871094 357.5546875 124.87548828 C360.16889827 126.32732506 361.87586208 128.03227002 363.9375 130.19189453 C366.59155 133.04511386 366.59155 133.04511386 369.8125 135.12939453 C369.8125 135.78939453 369.8125 136.44939453 369.8125 137.12939453 C370.8025 137.45939453 371.7925 137.78939453 372.8125 138.12939453 C372.8125 138.78939453 372.8125 139.44939453 372.8125 140.12939453 C373.4725 140.12939453 374.1325 140.12939453 374.8125 140.12939453 C374.8125 140.78939453 374.8125 141.44939453 374.8125 142.12939453 C375.8025 142.45939453 376.7925 142.78939453 377.8125 143.12939453 C377.8125 143.78939453 377.8125 144.44939453 377.8125 145.12939453 C378.4725 145.12939453 379.1325 145.12939453 379.8125 145.12939453 C381.3984375 146.73876953 381.3984375 146.73876953 383.1875 148.87939453 C385.15007727 151.19843155 387.0713295 153.38158737 389.25 155.50439453 C390.8125 157.12939453 390.8125 157.12939453 390.8125 159.12939453 C391.4725 159.12939453 392.1325 159.12939453 392.8125 159.12939453 C397.8125 164.60558501 397.8125 164.60558501 397.8125 167.12939453 C398.4725 167.12939453 399.1325 167.12939453 399.8125 167.12939453 C401.62215558 169.23915883 403.32127965 171.35640562 405 173.56689453 C405.48960205 174.20272461 405.9792041 174.83855469 406.48364258 175.49365234 C407.4690771 176.77343744 408.4524169 178.05483837 409.43359375 179.33789062 C411.80038026 182.41286927 414.23913498 185.43143155 416.66796875 188.45751953 C417.8125 190.12939453 417.8125 190.12939453 417.8125 192.12939453 C418.4725 192.12939453 419.1325 192.12939453 419.8125 192.12939453 C422.10898649 194.69086023 422.8125 195.60907025 422.8125 199.12939453 C423.4725 199.12939453 424.1325 199.12939453 424.8125 199.12939453 C426.3203125 201.02783203 426.3203125 201.02783203 427.9375 203.50439453 C428.47632813 204.31650391 429.01515625 205.12861328 429.5703125 205.96533203 C430.8125 208.12939453 430.8125 208.12939453 430.8125 210.12939453 C431.4725 210.12939453 432.1325 210.12939453 432.8125 210.12939453 C433.95751953 211.55053711 433.95751953 211.55053711 435.1953125 213.52392578 C435.64003906 214.23226562 436.08476563 214.94060547 436.54296875 215.67041016 C437.23326172 216.79479492 437.23326172 216.79479492 437.9375 217.94189453 C438.40542969 218.67988281 438.87335937 219.41787109 439.35546875 220.17822266 C442.8125 225.74676425 442.8125 225.74676425 442.8125 229.12939453 C443.4725 229.12939453 444.1325 229.12939453 444.8125 229.12939453 C445.080625 229.62826172 445.34875 230.12712891 445.625 230.64111328 C448.11759752 235.20814228 450.75698139 239.62217447 453.5625 244.00439453 C458.32531606 251.66983246 462.02063743 259.76983861 465.79589844 267.95410156 C467.16106831 270.87525036 468.60414198 273.75381166 470.0625 276.62939453 C474.15861008 284.76503858 477.82023014 292.91321408 480.84375 301.50830078 C481.75204973 303.96583754 482.7727733 306.31626198 483.875 308.69189453 C485.65474556 312.58378948 486.86851228 316.5021378 488.03515625 320.61376953 C488.80237274 323.09662089 489.73301229 325.42677555 490.75 327.81689453 C492.74875064 332.65356592 494.08333125 337.60515129 495.38037109 342.66235352 C496.45258481 346.83319079 497.68707027 350.89038032 499.09375 354.95751953 C501.23292263 361.42154118 502.86024524 368.04466806 504.28125 374.69970703 C504.67741998 376.51160207 505.09805688 378.31818025 505.53125 380.12158203 C508.20286294 391.26220801 509.80312864 402.46883275 511.11547852 413.83764648 C511.46134393 416.75113524 511.88117194 419.33541034 512.8125 422.12939453 C513.09331582 425.77554275 513.25805939 429.42209841 513.43359375 433.07470703 C513.60168817 435.9062905 513.88813028 438.66549359 514.28466797 441.47631836 C516.06208946 454.23934626 516.11659156 466.90386122 516.07324219 479.77612305 C516.06253044 483.55615312 516.07318623 487.33570704 516.0859375 491.11572266 C516.09211177 502.96818393 515.90225884 514.6258209 514.28393555 526.37817383 C513.7737692 530.43757616 513.54957011 534.41734107 513.375 538.50439453 C512.68440341 552.32924817 510.12537832 565.95127638 507.49609375 579.52001953 C506.87483947 582.80024211 506.3294077 586.08143799 505.8125 589.37939453 C504.82907991 595.3936992 503.35831556 601.23837604 501.8125 607.12939453 C499.85946821 614.71889629 498.10579784 622.31691541 496.55859375 630.00048828 C495.8737657 632.87246352 494.92651235 635.404706 493.8125 638.12939453 C493.668125 639.20189453 493.52375 640.27439453 493.375 641.37939453 C492.83767174 644.96158292 491.94613882 647.96998548 490.7578125 651.36767578 C489.5801057 654.8083316 488.5103521 658.28006167 487.4375 661.75439453 C483.89792355 673.14323535 480.11004798 684.43744122 476.0625 695.65673828 C475.21920073 697.99952907 474.38608583 700.34600745 473.5625 702.69580078 C470.89408833 710.29243526 467.9717462 717.72491125 464.8125 725.12939453 C463.9773138 727.1286215 463.14398796 729.12862662 462.3125 731.12939453 C461.69181641 732.61632812 461.69181641 732.61632812 461.05859375 734.13330078 C460.23309137 736.11812939 459.41270705 738.105095 458.59765625 740.09423828 C456.06123852 746.26105583 453.37059569 752.33114861 450.546875 758.37158203 C449.21357604 761.2383324 447.92158254 764.1216985 446.640625 767.01220703 C443.03579939 775.13640176 439.43009122 783.12995966 435.0234375 790.85986328 C433.82916001 793.09817046 432.91849073 795.3061382 432.0625 797.69189453 C430.8125 801.12939453 430.8125 801.12939453 428.8125 803.12939453 C428.11058146 804.74741219 427.41323004 806.36758541 426.74072266 807.99804688 C424.88631215 812.25606994 422.66163456 816.33390417 420.5 820.44189453 C419.80874023 821.77124023 419.80874023 821.77124023 419.10351562 823.12744141 C416.28008712 828.51119728 413.27605341 833.74031368 410.1184082 838.93432617 C408.61690134 841.45817142 407.31190124 844.03488865 406.0625 846.69189453 C400.48724812 858.04672689 393.68523599 868.78143708 387.02734375 879.52392578 C383.10262796 885.88377876 379.28831039 892.31142021 375.44921875 898.72314453 C374.75578369 899.87556641 374.75578369 899.87556641 374.04833984 901.05126953 C373.03251627 902.75942643 372.052207 904.48865425 371.08203125 906.22314453 C370.66308594 906.85220703 370.24414062 907.48126953 369.8125 908.12939453 C369.1525 908.12939453 368.4925 908.12939453 367.8125 908.12939453 C367.71195313 908.68498047 367.61140625 909.24056641 367.5078125 909.81298828 C366.65607597 912.65051504 365.31408037 914.71555356 363.6875 917.19189453 C363.05585937 918.16126953 362.42421875 919.13064453 361.7734375 920.12939453 C360.80277344 921.61439453 360.80277344 921.61439453 359.8125 923.12939453 C358.64405229 924.98243935 357.4773418 926.83658089 356.3125 928.69189453 C353.40508232 933.2700907 350.34530148 937.71907856 347.1953125 942.13330078 C345.78126802 944.07375558 345.78126802 944.07375558 344.8125 946.12939453 C344.1525 946.12939453 343.4925 946.12939453 342.8125 946.12939453 C342.69841797 946.71060059 342.58433594 947.29180664 342.46679688 947.890625 C341.75717378 950.31870104 340.79827562 951.88843346 339.34375 953.94970703 C338.61091797 954.99964844 338.61091797 954.99964844 337.86328125 956.07080078 C337.35152344 956.79138672 336.83976563 957.51197266 336.3125 958.25439453 C335.30109259 959.69380306 334.29063044 961.13387638 333.28125 962.57470703 C332.60739258 963.52627686 332.60739258 963.52627686 331.91992188 964.49707031 C330.75029364 966.14374937 330.75029364 966.14374937 329.8125 968.12939453 C329.1525 968.12939453 328.4925 968.12939453 327.8125 968.12939453 C327.544375 968.85126953 327.27625 969.57314453 327 970.31689453 C325.81348638 973.12705836 324.53764361 975.6135601 322.8125 978.12939453 C322.1525 978.12939453 321.4925 978.12939453 320.8125 978.12939453 C320.503125 978.91314453 320.19375 979.69689453 319.875 980.50439453 C318.8125 983.12939453 318.8125 983.12939453 317.8125 985.12939453 C317.1525 985.12939453 316.4925 985.12939453 315.8125 985.12939453 C315.53865479 985.70359131 315.26480957 986.27778809 314.98266602 986.86938477 C312.91621158 990.86044855 310.28652522 994.48820792 307.75 998.19189453 C307.16653809 999.04444824 306.58307617 999.89700195 305.98193359 1000.77539062 C301.55412783 1007.18383247 296.85079395 1013.18857154 291.8125 1019.12939453 C287.35605381 1024.66250314 283.22805829 1030.3421593 279.29296875 1036.25830078 C278.56013672 1037.18449219 278.56013672 1037.18449219 277.8125 1038.12939453 C277.1525 1038.12939453 276.4925 1038.12939453 275.8125 1038.12939453 C275.565 1038.66564453 275.3175 1039.20189453 275.0625 1039.75439453 C273.50597463 1042.71179273 271.77814327 1045.42663504 269.8125 1048.12939453 C269.1525 1048.12939453 268.4925 1048.12939453 267.8125 1048.12939453 C267.565 1048.84482422 267.3175 1049.56025391 267.0625 1050.29736328 C265.67386405 1053.4434916 263.96786054 1055.76750416 261.8125 1058.44189453 C261.11125 1059.32490234 260.41 1060.20791016 259.6875 1061.11767578 C259.06875 1061.78154297 258.45 1062.44541016 257.8125 1063.12939453 C257.1525 1063.12939453 256.4925 1063.12939453 255.8125 1063.12939453 C255.565 1063.66564453 255.3175 1064.20189453 255.0625 1064.75439453 C253.50597463 1067.71179273 251.77814327 1070.42663504 249.8125 1073.12939453 C249.1525 1073.12939453 248.4925 1073.12939453 247.8125 1073.12939453 C247.544375 1073.70173828 247.27625 1074.27408203 247 1074.86376953 C245.77117364 1077.20824087 244.38727824 1079.25344391 242.8125 1081.37939453 C242.296875 1082.08580078 241.78125 1082.79220703 241.25 1083.52001953 C240.775625 1084.05111328 240.30125 1084.58220703 239.8125 1085.12939453 C239.1525 1085.12939453 238.4925 1085.12939453 237.8125 1085.12939453 C237.503125 1085.74814453 237.19375 1086.36689453 236.875 1087.00439453 C236.1875 1088.37939453 235.5 1089.75439453 234.8125 1091.12939453 C234.1525 1091.12939453 233.4925 1091.12939453 232.8125 1091.12939453 C232.53994385 1091.71962402 232.2673877 1092.30985352 231.98657227 1092.91796875 C230.8424285 1095.07302265 229.63307614 1096.68522383 228.02734375 1098.51220703 C227.49689453 1099.12193359 226.96644531 1099.73166016 226.41992188 1100.35986328 C225.86884766 1100.98505859 225.31777344 1101.61025391 224.75 1102.25439453 C223.6531326 1103.50540939 222.55799606 1104.75794458 221.46484375 1106.01220703 C220.98007568 1106.56279785 220.49530762 1107.11338867 219.99584961 1107.68066406 C218.71616815 1109.1391719 218.71616815 1109.1391719 217.8125 1111.12939453 C217.1525 1111.12939453 216.4925 1111.12939453 215.8125 1111.12939453 C215.58691406 1111.67337891 215.36132812 1112.21736328 215.12890625 1112.77783203 C213.40026213 1115.86579572 211.16699856 1118.17394427 208.75 1120.75439453 C205.39716353 1124.17149206 205.39716353 1124.17149206 202.8125 1128.12939453 C202.1525 1128.12939453 201.4925 1128.12939453 200.8125 1128.12939453 C200.58691406 1128.67337891 200.36132812 1129.21736328 200.12890625 1129.77783203 C198.40026213 1132.86579572 196.16699856 1135.17394427 193.75 1137.75439453 C190.39716353 1141.17149206 190.39716353 1141.17149206 187.8125 1145.12939453 C187.1525 1145.12939453 186.4925 1145.12939453 185.8125 1145.12939453 C185.4825 1146.11939453 185.1525 1147.10939453 184.8125 1148.12939453 C184.1525 1148.12939453 183.4925 1148.12939453 182.8125 1148.12939453 C182.544375 1148.70689453 182.27625 1149.28439453 182 1149.87939453 C180.78320811 1152.18489496 179.50916121 1154.14995646 177.8125 1156.12939453 C177.1525 1156.12939453 176.4925 1156.12939453 175.8125 1156.12939453 C175.8125 1156.78939453 175.8125 1157.44939453 175.8125 1158.12939453 C175.1525 1158.12939453 174.4925 1158.12939453 173.8125 1158.12939453 C173.4825 1159.11939453 173.1525 1160.10939453 172.8125 1161.12939453 C172.1525 1161.12939453 171.4925 1161.12939453 170.8125 1161.12939453 C170.5546875 1161.70173828 170.296875 1162.27408203 170.03125 1162.86376953 C168.69884058 1165.34068448 167.16193882 1167.26351114 165.3125 1169.37939453 C164.7040625 1170.08580078 164.095625 1170.79220703 163.46875 1171.52001953 C161.8125 1173.12939453 161.8125 1173.12939453 159.8125 1173.12939453 C159.57660156 1173.69400391 159.34070313 1174.25861328 159.09765625 1174.84033203 C157.52015058 1177.65011416 155.57198714 1179.52558504 153.25 1181.75439453 C150.12207946 1184.64010134 150.12207946 1184.64010134 147.8125 1188.12939453 C147.1525 1188.12939453 146.4925 1188.12939453 145.8125 1188.12939453 C145.4825 1189.11939453 145.1525 1190.10939453 144.8125 1191.12939453 C144.1525 1191.12939453 143.4925 1191.12939453 142.8125 1191.12939453 C142.8125 1191.78939453 142.8125 1192.44939453 142.8125 1193.12939453 C142.1525 1193.12939453 141.4925 1193.12939453 140.8125 1193.12939453 C140.4825 1194.11939453 140.1525 1195.10939453 139.8125 1196.12939453 C139.1525 1196.12939453 138.4925 1196.12939453 137.8125 1196.12939453 C137.8125 1196.78939453 137.8125 1197.44939453 137.8125 1198.12939453 C137.1525 1198.12939453 136.4925 1198.12939453 135.8125 1198.12939453 C135.4825 1199.11939453 135.1525 1200.10939453 134.8125 1201.12939453 C134.1525 1201.12939453 133.4925 1201.12939453 132.8125 1201.12939453 C132.8125 1201.78939453 132.8125 1202.44939453 132.8125 1203.12939453 C132.1525 1203.12939453 131.4925 1203.12939453 130.8125 1203.12939453 C130.4825 1204.11939453 130.1525 1205.10939453 129.8125 1206.12939453 C129.1525 1206.12939453 128.4925 1206.12939453 127.8125 1206.12939453 C127.8125 1206.78939453 127.8125 1207.44939453 127.8125 1208.12939453 C127.1525 1208.12939453 126.4925 1208.12939453 125.8125 1208.12939453 C125.4825 1209.11939453 125.1525 1210.10939453 124.8125 1211.12939453 C124.1525 1211.12939453 123.4925 1211.12939453 122.8125 1211.12939453 C122.55726563 1211.70915039 122.30203125 1212.28890625 122.0390625 1212.88623047 C120.68665223 1215.35954765 119.17517476 1217.02541562 117.1875 1219.02001953 C116.48109375 1219.72900391 115.7746875 1220.43798828 115.046875 1221.16845703 C114.30953125 1221.89806641 113.5721875 1222.62767578 112.8125 1223.37939453 C112.07515625 1224.12447266 111.3378125 1224.86955078 110.578125 1225.63720703 C109.51851562 1226.69294922 109.51851562 1226.69294922 108.4375 1227.77001953 C107.79039062 1228.41487305 107.14328125 1229.05972656 106.4765625 1229.72412109 C104.8125 1231.12939453 104.8125 1231.12939453 102.8125 1231.12939453 C102.8125 1231.78939453 102.8125 1232.44939453 102.8125 1233.12939453 C102.1525 1233.12939453 101.4925 1233.12939453 100.8125 1233.12939453 C100.4825 1234.11939453 100.1525 1235.10939453 99.8125 1236.12939453 C99.1525 1236.12939453 98.4925 1236.12939453 97.8125 1236.12939453 C97.8125 1236.78939453 97.8125 1237.44939453 97.8125 1238.12939453 C97.1525 1238.12939453 96.4925 1238.12939453 95.8125 1238.12939453 C95.4825 1239.11939453 95.1525 1240.10939453 94.8125 1241.12939453 C94.1525 1241.12939453 93.4925 1241.12939453 92.8125 1241.12939453 C92.8125 1241.78939453 92.8125 1242.44939453 92.8125 1243.12939453 C92.1525 1243.12939453 91.4925 1243.12939453 90.8125 1243.12939453 C90.4825 1244.11939453 90.1525 1245.10939453 89.8125 1246.12939453 C89.1525 1246.12939453 88.4925 1246.12939453 87.8125 1246.12939453 C87.8125 1246.78939453 87.8125 1247.44939453 87.8125 1248.12939453 C86.34375 1249.57470703 86.34375 1249.57470703 84.3125 1251.25439453 C81.34572639 1253.77197355 78.53675751 1256.35108429 75.8125 1259.12939453 C70.7909069 1264.20983442 65.4797267 1268.88860551 59.875 1273.31689453 C59.30910156 1273.76419922 58.74320313 1274.21150391 58.16015625 1274.67236328 C50.42533313 1279.47284419 43.95589735 1280.78904699 34.875 1280.69189453 C33.85470703 1280.71574219 32.83441406 1280.73958984 31.78320312 1280.76416016 C19.46887248 1280.74058454 10.4205839 1274.48526149 1.765625 1266.16064453 C0.57187141 1264.95702521 -0.61078182 1263.74219904 -1.77734375 1262.51220703 C-3.15917147 1261.01567328 -3.15917147 1261.01567328 -5.1875 1260.12939453 C-5.1875 1259.46939453 -5.1875 1258.80939453 -5.1875 1258.12939453 C-5.77273438 1257.87287109 -6.35796875 1257.61634766 -6.9609375 1257.35205078 C-9.37984608 1256.02377291 -10.91948872 1254.56414652 -12.8125 1252.56689453 C-15.23271959 1249.98924064 -15.23271959 1249.98924064 -18.1875 1248.12939453 C-18.1875 1247.46939453 -18.1875 1246.80939453 -18.1875 1246.12939453 C-19.1775 1245.79939453 -20.1675 1245.46939453 -21.1875 1245.12939453 C-21.1875 1244.46939453 -21.1875 1243.80939453 -21.1875 1243.12939453 C-21.8475 1243.12939453 -22.5075 1243.12939453 -23.1875 1243.12939453 C-23.1875 1242.46939453 -23.1875 1241.80939453 -23.1875 1241.12939453 C-24.1775 1240.79939453 -25.1675 1240.46939453 -26.1875 1240.12939453 C-26.1875 1239.46939453 -26.1875 1238.80939453 -26.1875 1238.12939453 C-26.8475 1238.12939453 -27.5075 1238.12939453 -28.1875 1238.12939453 C-28.1875 1237.46939453 -28.1875 1236.80939453 -28.1875 1236.12939453 C-29.1775 1235.79939453 -30.1675 1235.46939453 -31.1875 1235.12939453 C-31.1875 1234.46939453 -31.1875 1233.80939453 -31.1875 1233.12939453 C-31.8475 1233.12939453 -32.5075 1233.12939453 -33.1875 1233.12939453 C-33.1875 1232.46939453 -33.1875 1231.80939453 -33.1875 1231.12939453 C-34.1775 1230.79939453 -35.1675 1230.46939453 -36.1875 1230.12939453 C-36.1875 1229.46939453 -36.1875 1228.80939453 -36.1875 1228.12939453 C-36.72890625 1227.91283203 -37.2703125 1227.69626953 -37.828125 1227.47314453 C-41.00395344 1225.66439456 -43.39478081 1223.21215654 -45.9375 1220.62939453 C-46.44410156 1220.13052734 -46.95070313 1219.63166016 -47.47265625 1219.11767578 C-51.1875 1215.38280592 -51.1875 1215.38280592 -51.1875 1213.12939453 C-51.8475 1213.12939453 -52.5075 1213.12939453 -53.1875 1213.12939453 C-53.1875 1212.46939453 -53.1875 1211.80939453 -53.1875 1211.12939453 C-54.1775 1210.79939453 -55.1675 1210.46939453 -56.1875 1210.12939453 C-56.1875 1209.46939453 -56.1875 1208.80939453 -56.1875 1208.12939453 C-56.8475 1208.12939453 -57.5075 1208.12939453 -58.1875 1208.12939453 C-58.1875 1207.46939453 -58.1875 1206.80939453 -58.1875 1206.12939453 C-59.1775 1205.79939453 -60.1675 1205.46939453 -61.1875 1205.12939453 C-61.1875 1204.46939453 -61.1875 1203.80939453 -61.1875 1203.12939453 C-61.8475 1203.12939453 -62.5075 1203.12939453 -63.1875 1203.12939453 C-63.1875 1202.46939453 -63.1875 1201.80939453 -63.1875 1201.12939453 C-64.1775 1200.79939453 -65.1675 1200.46939453 -66.1875 1200.12939453 C-66.1875 1199.46939453 -66.1875 1198.80939453 -66.1875 1198.12939453 C-66.8475 1198.12939453 -67.5075 1198.12939453 -68.1875 1198.12939453 C-68.1875 1197.46939453 -68.1875 1196.80939453 -68.1875 1196.12939453 C-69.1775 1195.79939453 -70.1675 1195.46939453 -71.1875 1195.12939453 C-71.1875 1194.46939453 -71.1875 1193.80939453 -71.1875 1193.12939453 C-71.8475 1193.12939453 -72.5075 1193.12939453 -73.1875 1193.12939453 C-74.5625 1191.73095703 -74.5625 1191.73095703 -76.1875 1189.75439453 C-79.04795355 1186.38144306 -82.03619661 1183.23265976 -85.1875 1180.12939453 C-88.87283742 1176.48886365 -92.3543236 1172.75736261 -95.71484375 1168.81689453 C-96.95065614 1167.4007912 -98.27883493 1166.06604255 -99.625 1164.75439453 C-101.1875 1163.12939453 -101.1875 1163.12939453 -101.1875 1161.12939453 C-101.8475 1161.12939453 -102.5075 1161.12939453 -103.1875 1161.12939453 C-104.8125 1159.75439453 -104.8125 1159.75439453 -106.1875 1158.12939453 C-106.1875 1157.46939453 -106.1875 1156.80939453 -106.1875 1156.12939453 C-106.8475 1156.12939453 -107.5075 1156.12939453 -108.1875 1156.12939453 C-113.1875 1150.65320406 -113.1875 1150.65320406 -113.1875 1148.12939453 C-113.8475 1148.12939453 -114.5075 1148.12939453 -115.1875 1148.12939453 C-116.59765625 1146.73095703 -116.59765625 1146.73095703 -118.25 1144.75439453 C-121.87554524 1140.47104994 -125.64949548 1136.3456732 -129.46484375 1132.23095703 C-131.1875 1130.12939453 -131.1875 1130.12939453 -131.1875 1128.12939453 C-131.8475 1128.12939453 -132.5075 1128.12939453 -133.1875 1128.12939453 C-134.70490976 1126.4303643 -136.152628 1124.6686673 -137.5625 1122.87939453 C-139.77979313 1120.07626141 -141.9180752 1117.39238256 -144.4765625 1114.89501953 C-146.1875 1113.12939453 -146.1875 1113.12939453 -146.1875 1111.12939453 C-146.8475 1111.12939453 -147.5075 1111.12939453 -148.1875 1111.12939453 C-149.66519218 1109.49506698 -151.07019319 1107.79463085 -152.4375 1106.06689453 C-155.1469861 1102.67018821 -157.86550145 1099.31625805 -160.75 1096.06689453 C-163.1875 1093.12939453 -163.1875 1093.12939453 -163.1875 1091.12939453 C-163.8475 1091.12939453 -164.5075 1091.12939453 -165.1875 1091.12939453 C-167.10442867 1088.91664354 -168.90721628 1086.69790357 -170.6875 1084.37939453 C-171.18636719 1083.74517578 -171.68523437 1083.11095703 -172.19921875 1082.45751953 C-174.54520542 1079.43855545 -176.54999178 1076.60007611 -178.1875 1073.12939453 C-178.8475 1073.12939453 -179.5075 1073.12939453 -180.1875 1073.12939453 C-181.6953125 1071.44970703 -181.6953125 1071.44970703 -183.3125 1069.25439453 C-184.12074219 1068.17544922 -184.12074219 1068.17544922 -184.9453125 1067.07470703 C-186.1875 1065.12939453 -186.1875 1065.12939453 -186.1875 1063.12939453 C-186.8475 1063.12939453 -187.5075 1063.12939453 -188.1875 1063.12939453 C-189.98289556 1061.03967183 -191.65811442 1058.95097371 -193.3125 1056.75439453 C-194.01439453 1055.84947266 -194.01439453 1055.84947266 -194.73046875 1054.92626953 C-198.1875 1050.39080579 -198.1875 1050.39080579 -198.1875 1048.12939453 C-198.8475 1048.12939453 -199.5075 1048.12939453 -200.1875 1048.12939453 C-201.6953125 1046.44970703 -201.6953125 1046.44970703 -203.3125 1044.25439453 C-204.12074219 1043.17544922 -204.12074219 1043.17544922 -204.9453125 1042.07470703 C-206.1875 1040.12939453 -206.1875 1040.12939453 -206.1875 1038.12939453 C-206.8475 1038.12939453 -207.5075 1038.12939453 -208.1875 1038.12939453 C-209.78125 1036.18017578 -209.78125 1036.18017578 -211.6875 1033.44189453 C-214.69109953 1029.20660311 -217.75677703 1025.0460532 -220.9375 1020.94189453 C-226.29568814 1014.01680744 -231.56205107 1007.02480366 -236.79199219 1000.00244141 C-237.69214374 998.79426039 -238.59373112 997.58714718 -239.49707031 996.38134766 C-240.64878005 994.8426854 -241.79340185 993.2987249 -242.9375 991.75439453 C-243.57171875 990.90103516 -244.2059375 990.04767578 -244.859375 989.16845703 C-246.1875 987.12939453 -246.1875 987.12939453 -246.1875 985.12939453 C-246.8475 985.12939453 -247.5075 985.12939453 -248.1875 985.12939453 C-251.1875 980.74477915 -251.1875 980.74477915 -251.1875 978.12939453 C-251.8475 978.12939453 -252.5075 978.12939453 -253.1875 978.12939453 C-254.4765625 976.44970703 -254.4765625 976.44970703 -255.8125 974.25439453 C-256.25851562 973.53509766 -256.70453125 972.81580078 -257.1640625 972.07470703 C-258.1875 970.12939453 -258.1875 970.12939453 -258.1875 968.12939453 C-258.8475 968.12939453 -259.5075 968.12939453 -260.1875 968.12939453 C-261.703125 966.00439453 -261.703125 966.00439453 -263.4375 963.12939453 C-266.1057289 958.78862802 -268.91208259 954.7403528 -272.12109375 950.78564453 C-273.1875 949.12939453 -273.1875 949.12939453 -273.1875 946.12939453 C-273.8475 946.12939453 -274.5075 946.12939453 -275.1875 946.12939453 C-276.703125 944.00439453 -276.703125 944.00439453 -278.4375 941.12939453 C-280.62175639 937.58735713 -282.82857718 934.1709538 -285.375 930.87939453 C-287.55888789 928.0386116 -289.39640909 925.15004938 -291.109375 921.99267578 C-292.8883345 918.91816968 -294.9674741 916.04487674 -297.015625 913.14501953 C-298.1875 911.12939453 -298.1875 911.12939453 -298.1875 908.12939453 C-298.8475 908.12939453 -299.5075 908.12939453 -300.1875 908.12939453 C-301.42089844 906.4362793 -301.42089844 906.4362793 -302.796875 904.07080078 C-303.30476562 903.2090625 -303.81265625 902.34732422 -304.3359375 901.45947266 C-304.86445313 900.54617188 -305.39296875 899.63287109 -305.9375 898.69189453 C-309.43589671 892.70154942 -313.01049659 886.82653091 -316.89697266 881.0793457 C-318.41258237 878.78930128 -319.73372411 876.44046814 -321 874.00439453 C-323.41725302 869.46807981 -326.01079227 865.07700916 -328.6875 860.69189453 C-331.95776579 855.317724 -334.8594649 849.87351125 -337.6015625 844.20751953 C-339.43102535 840.65673942 -341.47157971 837.28027837 -343.5625 833.87939453 C-347.90151949 826.80273667 -351.63742332 819.50226998 -355.25854492 812.0378418 C-356.27013343 809.95963223 -357.29200957 807.88688546 -358.3203125 805.81689453 C-358.64016113 805.17236328 -358.96000977 804.52783203 -359.28955078 803.86376953 C-360.04839446 802.39807472 -360.89074458 800.97607342 -361.75 799.56689453 C-363.17172022 797.15615155 -364.24612124 794.70185588 -365.3203125 792.12158203 C-367.59895817 786.88685549 -370.3080229 781.83301084 -372.92578125 776.76220703 C-376.09985914 770.5720293 -378.90705784 764.4352381 -381.16015625 757.84033203 C-382.30736353 754.81310065 -383.70458975 752.00646231 -385.1875 749.12939453 C-387.57044903 744.50051604 -389.42601729 739.89987577 -391.12109375 734.98486328 C-392.33461008 731.73548439 -393.7677947 728.6399689 -395.25 725.50439453 C-397.2234357 721.30161625 -398.96466697 717.19331566 -400.34765625 712.76611328 C-401.53189565 709.04815239 -402.82811027 705.37184897 -404.125 701.69189453 C-404.38780762 700.94488281 -404.65061523 700.19787109 -404.92138672 699.42822266 C-406.29966833 695.53922421 -407.73357423 691.69253148 -409.3125 687.87939453 C-411.2889852 683.07350106 -412.75867047 678.14793997 -414.24609375 673.17236328 C-415.01944879 670.67259741 -415.86047869 668.2519641 -416.8125 665.81689453 C-418.01647408 662.58805495 -418.88042521 659.50073789 -419.6640625 656.16064453 C-420.1904042 654.11812449 -420.85230366 652.17738967 -421.5625 650.19189453 C-423.41353296 644.83712061 -424.60057064 639.32904307 -425.82958984 633.80541992 C-426.38560119 630.16754703 -426.38560119 630.16754703 -428.1875 627.12939453 C-428.51580787 625.67887066 -428.79930393 624.21813405 -429.0625 622.75439453 C-429.78301854 618.95677423 -430.67645346 615.27979453 -431.75 611.56689453 C-432.92969757 607.39076512 -433.56430561 603.41895508 -433.9453125 599.10595703 C-434.28886555 596.30212088 -435.26331994 593.79320763 -436.1875 591.12939453 C-437.67842582 585.03604552 -438.41313507 579.01330316 -438.91015625 572.77001953 C-439.16139906 570.3779049 -439.56691085 568.15308166 -440.125 565.81689453 C-442.56488152 555.54754246 -443.43093393 545.13705104 -443.94140625 534.62548828 C-444.09625162 531.30851068 -444.09625162 531.30851068 -444.66838074 528.81634521 C-446.55235208 519.06494809 -446.34561654 508.82502516 -446.35546875 498.92626953 C-446.35879715 497.72359436 -446.36212555 496.52091919 -446.36555481 495.28179932 C-446.370577 492.75753151 -446.37296461 490.23325717 -446.37280273 487.70898438 C-446.3749868 483.90239229 -446.39318725 480.09609176 -446.41210938 476.28955078 C-446.43903992 464.35396352 -446.29156145 452.61839595 -444.66113281 440.7824707 C-444.18126043 437.08126944 -443.93158539 433.41859361 -443.75 429.69189453 C-443.25595802 421.46080218 -441.91502651 413.42251865 -440.54296875 405.30224609 C-440.05759986 402.33536209 -439.65976912 399.35753794 -439.25 396.37939453 C-438.33155972 390.28499844 -436.71685051 384.44187811 -435.06640625 378.51611328 C-434.37354009 375.846269 -433.85316918 373.36168479 -433.5625 370.62939453 C-433.08275314 366.1517572 -432.00804336 362.05529795 -430.2421875 357.91064453 C-428.92916335 354.4481512 -428.09661262 350.91373832 -427.25 347.31689453 C-426.07830011 342.48417494 -424.85049534 337.78337505 -422.96484375 333.17626953 C-421.90706243 330.39095591 -421.09575038 327.54835884 -420.25 324.69189453 C-418.84884445 320.06222086 -417.23160738 315.73480291 -415.18359375 311.35986328 C-414.07701715 308.88199959 -413.15828068 306.37394174 -412.25 303.81689453 C-408.88214485 294.42851069 -404.9381868 285.44115289 -400.41552734 276.56005859 C-398.08780282 271.97833348 -395.88004139 267.35362924 -393.72094727 262.69018555 C-390.70672592 256.18975835 -387.75160948 249.96225977 -383.55859375 244.12158203 C-382.03552186 241.90857159 -380.8099399 239.63356976 -379.5625 237.25439453 C-375.27795432 229.20220546 -370.23135627 221.59659108 -365.30737305 213.92602539 C-364.14816096 212.12872003 -364.14816096 212.12872003 -363.1875 210.12939453 C-362.5275 210.12939453 -361.8675 210.12939453 -361.1875 210.12939453 C-360.94 209.42814453 -360.6925 208.72689453 -360.4375 208.00439453 C-359.01569762 204.73424905 -357.31503712 201.98827253 -355.1875 199.12939453 C-354.5275 199.12939453 -353.8675 199.12939453 -353.1875 199.12939453 C-353.06375 198.53126953 -352.94 197.93314453 -352.8125 197.31689453 C-352.1875 195.12939453 -352.1875 195.12939453 -350.1875 192.12939453 C-349.5275 192.12939453 -348.8675 192.12939453 -348.1875 192.12939453 C-347.96707031 191.43587891 -347.74664062 190.74236328 -347.51953125 190.02783203 C-345.85912348 186.41486263 -343.48715084 183.69958921 -340.875 180.75439453 C-337.78747736 177.20767872 -334.77075501 173.71380477 -332.125 169.81689453 C-331.485625 168.93001953 -330.84625 168.04314453 -330.1875 167.12939453 C-329.5275 167.12939453 -328.8675 167.12939453 -328.1875 167.12939453 C-327.919375 166.55189453 -327.65125 165.97439453 -327.375 165.37939453 C-326.15820811 163.07389411 -324.88416121 161.10883261 -323.1875 159.12939453 C-322.5275 159.12939453 -321.8675 159.12939453 -321.1875 159.12939453 C-320.960625 158.57380859 -320.73375 158.01822266 -320.5 157.44580078 C-318.81052816 154.4640841 -316.65247875 152.44230283 -314.1875 150.06689453 C-311.50539712 147.47445498 -309.25960825 145.23755691 -307.1875 142.12939453 C-306.5275 142.12939453 -305.8675 142.12939453 -305.1875 142.12939453 C-305.1875 141.46939453 -305.1875 140.80939453 -305.1875 140.12939453 C-304.5275 140.12939453 -303.8675 140.12939453 -303.1875 140.12939453 C-302.8575 139.13939453 -302.5275 138.14939453 -302.1875 137.12939453 C-301.5275 137.12939453 -300.8675 137.12939453 -300.1875 137.12939453 C-300.1875 136.46939453 -300.1875 135.80939453 -300.1875 135.12939453 C-298.578125 133.54345703 -298.578125 133.54345703 -296.4375 131.75439453 C-294.11846298 129.79181726 -291.93530716 127.87056503 -289.8125 125.69189453 C-288.1875 124.12939453 -288.1875 124.12939453 -286.1875 124.12939453 C-286.1875 123.46939453 -286.1875 122.80939453 -286.1875 122.12939453 C-280.71130952 117.12939453 -280.71130952 117.12939453 -278.1875 117.12939453 C-278.1875 116.46939453 -278.1875 115.80939453 -278.1875 115.12939453 C-276.0703125 113.18408203 -276.0703125 113.18408203 -273.3125 111.00439453 C-272.40757812 110.27994141 -271.50265625 109.55548828 -270.5703125 108.80908203 C-268.1875 107.12939453 -268.1875 107.12939453 -266.1875 107.12939453 C-266.1875 106.46939453 -266.1875 105.80939453 -266.1875 105.12939453 C-262.72596154 102.12939453 -262.72596154 102.12939453 -260.1875 102.12939453 C-260.1875 101.46939453 -260.1875 100.80939453 -260.1875 100.12939453 C-258.8675 99.79939453 -257.5475 99.46939453 -256.1875 99.12939453 C-256.1875 98.46939453 -256.1875 97.80939453 -256.1875 97.12939453 C-254.75390625 95.89599609 -254.75390625 95.89599609 -252.75 94.52001953 C-252.01910156 94.01212891 -251.28820312 93.50423828 -250.53515625 92.98095703 C-249.37306641 92.18818359 -249.37306641 92.18818359 -248.1875 91.37939453 C-246.68665993 90.34415303 -245.18665697 89.30769687 -243.6875 88.27001953 C-242.94242188 87.75761719 -242.19734375 87.24521484 -241.4296875 86.71728516 C-238.51232916 84.65124654 -235.70673783 82.4531478 -232.9140625 80.22216797 C-231.1875 79.12939453 -231.1875 79.12939453 -228.1875 79.12939453 C-228.1875 78.46939453 -228.1875 77.80939453 -228.1875 77.12939453 C-227.218125 76.59314453 -226.24875 76.05689453 -225.25 75.50439453 C-222.38515503 73.8739016 -219.65698744 72.11638593 -216.9375 70.25439453 C-211.87990496 66.83965775 -206.56617629 64.00012498 -201.1875 61.12939453 C-199.81075046 60.36169033 -198.43568013 59.59096518 -197.0625 58.81689453 C-170.84902984 44.2223679 -170.84902984 44.2223679 -157.80859375 39.15673828 C-154.97709875 38.04692728 -152.17710504 36.87385999 -149.375 35.69189453 C-144.04868977 33.46291233 -138.67878554 31.37057916 -133.28125 29.32080078 C-130.52140579 28.25798199 -127.79267443 27.14052724 -125.0625 26.00439453 C-120.67213034 24.22529049 -116.2275475 22.97896898 -111.6328125 21.84033203 C-109.21888134 21.2239315 -109.21888134 21.2239315 -107.26953125 20.13720703 C-104.50468699 18.79887717 -101.751056 18.26776945 -98.75 17.62939453 C-95.61639971 16.96128045 -92.67698405 16.32827152 -89.70703125 15.12158203 C-86.61150034 13.90256676 -83.58462554 13.35252501 -80.3125 12.75439453 C-74.91414978 11.73957154 -69.66505764 10.48668479 -64.375 9.00439453 C-59.30488317 7.60574161 -54.54217083 6.70094564 -49.3046875 6.34033203 C-46.94371918 6.17197279 -46.94371918 6.17197279 -43.8125 5.12939453 C-39.4830789 3.93507147 -35.33005493 3.65348741 -30.859375 3.37548828 C-28.08692386 3.22247163 -28.08692386 3.22247163 -25.1875 2.12939453 C-21.60677579 1.81952417 -18.02539986 1.61993869 -14.4375 1.41064453 C-9.50514859 0.98380643 -5.04035298 -0.01293685 0 0 Z M-2.1875 217.12939453 C-3.76908453 217.25740047 -5.35297028 217.35786644 -6.9375 217.44189453 C-13.06084603 217.93860212 -18.73636523 219.49247043 -24.609375 221.19189453 C-28.1875 222.12939453 -28.1875 222.12939453 -31.828125 222.62939453 C-34.9697756 223.09698904 -37.29317098 223.88095213 -40.1875 225.12939453 C-42.07881176 225.7069152 -43.97516729 226.26805397 -45.875 226.81689453 C-60.30620185 231.23095289 -73.80873863 237.19716504 -87.1875 244.12939453 C-88.95709545 244.98612281 -90.72775576 245.84065911 -92.5 246.69189453 C-96.99648336 248.94013621 -101.1897719 251.5684641 -105.3984375 254.31298828 C-107.24365233 255.51470382 -109.10307943 256.69489947 -110.9765625 257.85205078 C-116.4482308 261.23523724 -121.52063422 264.84690515 -126.484375 268.93798828 C-128.53349102 270.59919361 -130.59508287 272.20625003 -132.703125 273.78955078 C-133.30141113 274.24031982 -133.89969727 274.69108887 -134.51611328 275.15551758 C-135.69840538 276.04328108 -136.88420413 276.92639682 -138.07373047 277.80444336 C-139.48124712 278.86633224 -140.83961127 279.99277363 -142.1875 281.12939453 C-142.1875 281.78939453 -142.1875 282.44939453 -142.1875 283.12939453 C-142.8475 283.12939453 -143.5075 283.12939453 -144.1875 283.12939453 C-145.85416667 284.46272786 -145.85416667 284.46272786 -147.1875 286.12939453 C-147.1875 286.78939453 -147.1875 287.44939453 -147.1875 288.12939453 C-147.991875 288.43876953 -147.991875 288.43876953 -148.8125 288.75439453 C-152.10728009 290.66189879 -154.78113628 293.17758837 -157.1875 296.12939453 C-157.1875 296.78939453 -157.1875 297.44939453 -157.1875 298.12939453 C-157.8475 298.12939453 -158.5075 298.12939453 -159.1875 298.12939453 C-160.85416667 299.46272786 -160.85416667 299.46272786 -162.1875 301.12939453 C-162.1875 301.78939453 -162.1875 302.44939453 -162.1875 303.12939453 C-162.8475 303.12939453 -163.5075 303.12939453 -164.1875 303.12939453 C-165.72958443 304.80625685 -165.72958443 304.80625685 -167.3125 307.00439453 C-169.86410334 310.38540102 -172.4538793 313.71686137 -175.125 317.00439453 C-178.03908683 320.64842875 -180.89495272 324.32872278 -183.6875 328.06689453 C-184.3578125 328.96279297 -185.028125 329.85869141 -185.71875 330.78173828 C-187.45268963 333.09173398 -187.45268963 333.09173398 -187.1875 336.12939453 C-187.8475 336.12939453 -188.5075 336.12939453 -189.1875 336.12939453 C-189.56261719 336.81904297 -189.93773437 337.50869141 -190.32421875 338.21923828 C-192.74102176 342.65714608 -195.1604244 347.09280421 -197.625 351.50439453 C-198.4797653 353.04572937 -199.33386908 354.58743116 -200.1875 356.12939453 C-200.75726563 357.15162109 -201.32703125 358.17384766 -201.9140625 359.22705078 C-205.00700977 364.85358251 -207.89417947 370.4082697 -210.16015625 376.41845703 C-211.18498036 379.12274575 -212.28828952 381.7888381 -213.3972168 384.45947266 C-217.276921 393.88486463 -220.21701021 403.4710366 -222.375 413.44189453 C-223.1875 417.12939453 -223.1875 417.12939453 -224.1875 418.12939453 C-226.13762527 425.65433443 -227.48809815 433.16508414 -227.9765625 440.92236328 C-228.1875 443.12939453 -228.1875 443.12939453 -229.1875 446.12939453 C-230.41237779 456.54181422 -230.34331514 467.03905995 -230.31787109 477.50634766 C-230.31250788 480.12554713 -230.31785197 482.7445752 -230.32421875 485.36376953 C-230.87836103 501.47675228 -230.87836103 501.47675228 -228.1875 517.12939453 C-228.05949406 518.71097906 -227.95902809 520.29486482 -227.875 521.87939453 C-227.37024347 528.01788528 -225.82063798 533.74371693 -224.15625 539.64111328 C-223.4218965 542.28537811 -222.78438768 544.8795411 -222.25 547.56689453 C-218.25848448 566.01044902 -210.75585141 583.74568923 -202.0703125 600.41503906 C-200.85424311 602.77655434 -199.71331671 605.17304824 -198.5625 607.56689453 C-196.51174642 611.6963031 -194.07456261 615.4521484 -191.421875 619.21923828 C-190.1875 621.12939453 -190.1875 621.12939453 -189.1875 624.12939453 C-188.5275 624.12939453 -187.8675 624.12939453 -187.1875 624.12939453 C-187.06689209 624.72236328 -186.94628418 625.31533203 -186.82202148 625.92626953 C-185.79693407 629.4854803 -183.44717113 632.20564957 -181.25 635.12939453 C-180.76289551 635.78641357 -180.27579102 636.44343262 -179.77392578 637.12036133 C-175.73172869 642.52192177 -171.4710739 647.71121115 -167.0859375 652.83642578 C-165.1875 655.12939453 -165.1875 655.12939453 -164.1875 657.12939453 C-163.5275 657.12939453 -162.8675 657.12939453 -162.1875 657.12939453 C-162.1875 657.78939453 -162.1875 658.44939453 -162.1875 659.12939453 C-160.85416667 660.7960612 -160.85416667 660.7960612 -159.1875 662.12939453 C-158.5275 662.12939453 -157.8675 662.12939453 -157.1875 662.12939453 C-156.878125 662.93376953 -156.878125 662.93376953 -156.5625 663.75439453 C-154.65499574 667.04917462 -152.13930616 669.72303081 -149.1875 672.12939453 C-148.5275 672.12939453 -147.8675 672.12939453 -147.1875 672.12939453 C-147.1875 672.78939453 -147.1875 673.44939453 -147.1875 674.12939453 C-145.85416667 675.7960612 -145.85416667 675.7960612 -144.1875 677.12939453 C-143.5275 677.12939453 -142.8675 677.12939453 -142.1875 677.12939453 C-142.1875 677.78939453 -142.1875 678.44939453 -142.1875 679.12939453 C-140.51063768 680.67147896 -140.51063768 680.67147896 -138.3125 682.25439453 C-134.93149351 684.80599787 -131.60003317 687.39577383 -128.3125 690.06689453 C-118.17699606 698.18749486 -118.17699606 698.18749486 -107.16015625 705.02001953 C-104.4587283 706.53923842 -101.86851205 708.22153905 -99.25 709.87939453 C-89.58601433 715.84701702 -79.4246466 721.11773879 -68.7890625 725.13720703 C-66.76934799 725.90748854 -64.76728657 726.72412922 -62.7734375 727.55908203 C-54.97020198 730.82229048 -47.25659828 733.35157228 -39.0390625 735.36767578 C-36.1875 736.12939453 -36.1875 736.12939453 -35.1875 737.12939453 C-33.72937131 737.48283527 -32.25907691 737.78650636 -30.78515625 738.06689453 C-29.89505859 738.23962891 -29.00496094 738.41236328 -28.08789062 738.59033203 C-27.15138672 738.76822266 -26.21488281 738.94611328 -25.25 739.12939453 C-23.40704607 739.48091857 -21.56457098 739.83496529 -19.72265625 740.19189453 C-18.901604 740.34787109 -18.08055176 740.50384766 -17.23461914 740.66455078 C-15.1875 741.12939453 -15.1875 741.12939453 -13.1875 742.12939453 C-11.37879862 742.33319187 -9.56513408 742.49440448 -7.75 742.62939453 C-4.62441282 742.86246095 -2.17325171 743.13414396 0.8125 744.12939453 C11.29154027 745.25441246 21.82848459 745.28704848 32.35546875 745.25976562 C34.80995861 745.25440009 37.26426558 745.25975198 39.71875 745.26611328 C55.9956161 745.82551013 55.9956161 745.82551013 71.8125 743.12939453 C73.39408453 743.00138859 74.97797028 742.90092262 76.5625 742.81689453 C82.70099075 742.312138 88.4268224 740.76253251 94.32421875 739.09814453 C96.96848358 738.36379103 99.56264657 737.72628221 102.25 737.19189453 C120.69355449 733.20037901 138.4287947 725.69774594 155.09814453 717.01220703 C157.45965981 715.79613764 159.85615371 714.65521124 162.25 713.50439453 C166.37940857 711.45364095 170.13525387 709.01645714 173.90234375 706.36376953 C175.8125 705.12939453 175.8125 705.12939453 178.8125 704.12939453 C178.8125 703.46939453 178.8125 702.80939453 178.8125 702.12939453 C179.8025 702.12939453 180.7925 702.12939453 181.8125 702.12939453 C181.8125 701.46939453 181.8125 700.80939453 181.8125 700.12939453 C182.89337891 699.74267578 182.89337891 699.74267578 183.99609375 699.34814453 C192.74561399 695.56194437 200.16313062 688.27937756 207.37890625 682.13330078 C209.8125 680.12939453 209.8125 680.12939453 211.8125 679.12939453 C211.8125 678.46939453 211.8125 677.80939453 211.8125 677.12939453 C212.4725 677.12939453 213.1325 677.12939453 213.8125 677.12939453 C215.47916667 675.7960612 215.47916667 675.7960612 216.8125 674.12939453 C216.8125 673.46939453 216.8125 672.80939453 216.8125 672.12939453 C217.34875 671.92314453 217.885 671.71689453 218.4375 671.50439453 C221.73228009 669.59689027 224.40613628 667.08120069 226.8125 664.12939453 C226.8125 663.46939453 226.8125 662.80939453 226.8125 662.12939453 C227.4725 662.12939453 228.1325 662.12939453 228.8125 662.12939453 C230.47916667 660.7960612 230.47916667 660.7960612 231.8125 659.12939453 C231.8125 658.46939453 231.8125 657.80939453 231.8125 657.12939453 C232.4725 657.12939453 233.1325 657.12939453 233.8125 657.12939453 C235.35458443 655.45253221 235.35458443 655.45253221 236.9375 653.25439453 C239.52337116 649.82448642 242.15802696 646.45651315 244.875 643.12939453 C251.51395817 635.83648624 251.51395817 635.83648624 254.8125 627.12939453 C255.4725 627.12939453 256.1325 627.12939453 256.8125 627.12939453 C257.3075 626.24251953 257.8025 625.35564453 258.3125 624.44189453 C260.29229775 620.95633512 262.42149246 617.58041827 264.5625 614.19189453 C270.53017064 604.52783089 275.79503788 594.36800023 279.8203125 583.73486328 C280.83530167 581.0695177 281.9266916 578.44043671 283.01977539 575.80639648 C286.20920024 568.05335357 288.66154378 560.23908083 290.8125 552.12939453 C291.07804688 551.18451172 291.34359375 550.23962891 291.6171875 549.26611328 C294.3882878 539.39585396 296.9619521 529.63580614 297.6015625 519.37158203 C297.8125 517.12939453 297.8125 517.12939453 298.8125 514.12939453 C299.93751793 503.65035426 299.97015395 493.11340994 299.94287109 482.58642578 C299.93750556 480.13193592 299.94285745 477.67762895 299.94921875 475.22314453 C300.5086156 458.94627843 300.5086156 458.94627843 297.8125 443.12939453 C297.68449406 441.54781 297.58402809 439.96392425 297.5 438.37939453 C296.99524347 432.24090379 295.44563798 426.51507213 293.78125 420.61767578 C293.0468965 417.97341096 292.40938768 415.37924797 291.875 412.69189453 C287.88348448 394.24834004 280.38085141 376.51309983 271.6953125 359.84375 C270.47924311 357.48223472 269.33831671 355.08574082 268.1875 352.69189453 C266.13674642 348.56248596 263.69956261 344.80664066 261.046875 341.03955078 C259.8125 339.12939453 259.8125 339.12939453 258.8125 336.12939453 C258.1525 336.12939453 257.4925 336.12939453 256.8125 336.12939453 C256.63267578 335.24102905 256.63267578 335.24102905 256.44921875 334.3347168 C255.41432452 330.75028444 253.02866968 328.0099025 250.8125 325.06689453 C250.07688843 324.07641113 250.07688843 324.07641113 249.32641602 323.06591797 C245.55477162 318.0240496 241.63388894 313.12779724 237.58984375 308.30126953 C235.8125 306.12939453 235.8125 306.12939453 233.8125 303.12939453 C233.1525 303.12939453 232.4925 303.12939453 231.8125 303.12939453 C231.8125 302.46939453 231.8125 301.80939453 231.8125 301.12939453 C230.47916667 299.46272786 230.47916667 299.46272786 228.8125 298.12939453 C228.1525 298.12939453 227.4925 298.12939453 226.8125 298.12939453 C226.60625 297.59314453 226.4 297.05689453 226.1875 296.50439453 C224.27999574 293.20961445 221.76430616 290.53575825 218.8125 288.12939453 C218.1525 288.12939453 217.4925 288.12939453 216.8125 288.12939453 C216.8125 287.46939453 216.8125 286.80939453 216.8125 286.12939453 C215.47916667 284.46272786 215.47916667 284.46272786 213.8125 283.12939453 C213.1525 283.12939453 212.4925 283.12939453 211.8125 283.12939453 C211.8125 282.46939453 211.8125 281.80939453 211.8125 281.12939453 C210.13563768 279.5873101 210.13563768 279.5873101 207.9375 278.00439453 C204.55649351 275.45279119 201.22503317 272.86301523 197.9375 270.19189453 C194.29346579 267.2778077 190.61317175 264.42194181 186.875 261.62939453 C185.97910156 260.95908203 185.08320312 260.28876953 184.16015625 259.59814453 C181.85016055 257.8642049 181.85016055 257.8642049 178.8125 258.12939453 C178.8125 257.46939453 178.8125 256.80939453 178.8125 256.12939453 C177.77802734 255.56671875 177.77802734 255.56671875 176.72265625 254.99267578 C172.28474845 252.57587277 167.84909033 250.15647013 163.4375 247.69189453 C161.89616516 246.83712923 160.35446338 245.98302546 158.8125 245.12939453 C157.79027344 244.55962891 156.76804687 243.98986328 155.71484375 243.40283203 C150.08831202 240.30988476 144.53362483 237.42271506 138.5234375 235.15673828 C135.81931928 234.13197878 133.15339706 233.02872869 130.48291016 231.91992188 C122.73283282 228.72964086 114.91969722 226.27969057 106.8125 224.12939453 C105.39517578 223.73107422 105.39517578 223.73107422 103.94921875 223.32470703 C94.07895943 220.55360673 84.31891161 217.97994244 74.0546875 217.34033203 C71.8125 217.12939453 71.8125 217.12939453 68.8125 216.12939453 C58.40008032 214.90451674 47.90283458 214.97357939 37.43554688 214.99902344 C34.8163474 215.00438665 32.19731933 214.99904256 29.578125 214.99267578 C13.46514225 214.4385335 13.46514225 214.4385335 -2.1875 217.12939453 Z " fill="#000000" transform="translate(605.1875,-0.12939453125)"/>
</svg>
